# xmcd
#
# Track frame offsets:
#	150
#	13442
#	27200
#	40940
#	57480
#	77321
#	90809
#	108646
#	120899
#	136287
#
# Disc length: 2053 seconds
#
# Revision: 1
# Processed by: cddbd v1.5.2PL0 Copyright (c) Steve Scherf et al.
# Submitted via: audiograbber 1.83.01
#
DISCID=7208030a
DTITLE=Bobby Bare - Sleeper Wherever I Fall
DYEAR=1978
DGENRE=Country
TTITLE0=Sleep Tight, Good Night Man
TTITLE1=Hot Afternoon
TTITLE2=What Did It Get Me
TTITLE3=Goin' Up's Easy, Comin' Down's
TTITLE4=Way I Feel Tonight
TTITLE5=Healin'
TTITLE6=Love Is A Cold Wind
TTITLE7=I'll feel A Whole Lot better
TTITLE8=The Last Time
TTITLE9=On A real good Night
EXTD=
EXTT0=
EXTT1=
EXTT2=
EXTT3=
EXTT4=
EXTT5=
EXTT6=
EXTT7=
EXTT8=
EXTT9=
PLAYORDER=
